<svg xmlns="http://www.w3.org/2000/svg" width="48" height="48" viewBox="0 0 48 48">
  <g fill="none" fill-rule="evenodd">
    <rect width="48" height="48" fill="#BC79EC" rx="24"/>
    <path fill="#FFF" fill-rule="nonzero" d="M22.0037734,25.4960094 C22,27.3887196 20.8721037,29 18.5,29 C16.1278963,29 15,27.3887196 15,25.5 L14.9997936,25.509 L14.9937936,25.5032978 L18.5,15 L30.5,15 L34.0051243,25.5000562 C33.9979889,27.3915899 32.8699899,29 30.5,29 C28.1278963,29 27,27.3887196 27,25.5 L26.9997936,25.51 L26.9935988,25.5038813 L30.1657936,16 L25,16 L25,32 L31,32 L31,33 L18,33 L18,32 L24,32 L24,16 L18.8337936,16 L22.0037734,25.4960094 Z M32.963,26 L28.036,26 L28.0554928,26.1209459 C28.2508881,27.1607594 28.9684141,27.9275877 30.3048586,27.995151 L30.3048586,27.995151 L30.5,28 C31.9620661,28 32.7398073,27.2102743 32.9445072,26.1209459 L32.9445072,26.1209459 L32.963,26 Z M20.963,26 L16.036,26 L16.0554928,26.1209459 C16.2508881,27.1607594 16.9684141,27.9275877 18.3048586,27.995151 L18.3048586,27.995151 L18.5,28 C19.9620661,28 20.7398073,27.2102743 20.9445072,26.1209459 L20.9445072,26.1209459 L20.963,26 Z M30.5,17.238 L28.171,25 L32.828,25 L30.5,17.238 Z M18.5,17.238 L16.171,25 L20.828,25 L18.5,17.238 Z"/>
  </g>
</svg>
