<svg xmlns="http://www.w3.org/2000/svg" xmlns:xlink="http://www.w3.org/1999/xlink" width="48" height="48" viewBox="0 0 48 48">
  <defs>
    <path id="balance-a" d="M10.0037734,13.4960094 C10,15.3887196 8.87210371,17 6.5,17 C4.12789629,17 3,15.3887196 3,13.5 L2.99979359,13.509 L2.99379359,13.5032978 L6.5,3 L18.5,3 L22.0051243,13.5000562 C21.9979889,15.3915899 20.8699899,17 18.5,17 C16.1278963,17 15,15.3887196 15,13.5 L14.9997936,13.51 L14.9935988,13.5038813 L18.1657936,4 L13,4 L13,20 L19,20 L19,21 L6,21 L6,20 L12,20 L12,4 L6.83379359,4 L10.0037734,13.4960094 Z M20.963,14 L16.036,14 L16.0554928,14.1209459 C16.2508881,15.1607594 16.9684141,15.9275877 18.3048586,15.995151 L18.3048586,15.995151 L18.5,16 C19.9620661,16 20.7398073,15.2102743 20.9445072,14.1209459 L20.9445072,14.1209459 L20.963,14 Z M8.963,14 L4.036,14 L4.0554928,14.1209459 C4.25088814,15.1607594 4.96841413,15.9275877 6.30485858,15.995151 L6.30485858,15.995151 L6.5,16 C7.96206609,16 8.73980732,15.2102743 8.9445072,14.1209459 L8.9445072,14.1209459 L8.963,14 Z M18.5,5.238 L16.171,13 L20.828,13 L18.5,5.238 Z M6.5,5.238 L4.171,13 L8.828,13 L6.5,5.238 Z"/>
  </defs>
  <g fill="none" fill-rule="evenodd">
    <rect width="48" height="48" fill="#BC79EC" rx="24"/>
    <g transform="translate(12 12)">
      <mask id="balance-b" fill="#fff">
        <use xlink:href="#balance-a"/>
      </mask>
      <use fill="#797E86" fill-rule="nonzero" xlink:href="#balance-a"/>
      <g fill="#FFF" mask="url(#balance-b)">
        <rect width="24" height="24"/>
      </g>
    </g>
  </g>
</svg>
