<svg xmlns="http://www.w3.org/2000/svg" xmlns:xlink="http://www.w3.org/1999/xlink" width="48" height="48" viewBox="0 0 48 48">
  <defs>
    <path id="cog-a" d="M12,15 C13.6465729,15 15,13.6465729 15,12 C15,10.3534271 13.6465729,9 12,9 C10.3534271,9 9,10.3534271 9,12 C9,13.6465729 10.3534271,15 12,15 Z M12,16 C9.8,16 8,14.2 8,12 C8,9.8 9.8,8 12,8 C14.2,8 16,9.8 16,12 C16,14.2 14.2,16 12,16 Z M20.8442404,8.85296277 L19.2282264,6.13279717 L16.5420304,7.18265373 L16.0977487,6.85356387 C15.6102609,6.4924703 15.1194439,6.2152307 14.5883742,6.00449368 L14.0509254,5.79122534 L13.9676401,5.21903814 L13.6446768,3 L10.3682116,3 L9.96193209,5.79122534 L9.42448326,6.00449368 C8.90483065,6.21070019 8.40084284,6.49651991 7.91216743,6.85573426 L7.46860658,7.18178591 L6.95587085,6.98139138 L4.78476596,6.13279342 L3.16855661,8.8528465 L5.46009567,10.592929 L5.36226195,11.1873908 C5.31219973,11.4915812 5.28553332,11.7637944 5.28553332,12 C5.28553332,12.276358 5.30769924,12.5591977 5.34940451,12.8126092 L5.44723822,13.407071 L4.96743358,13.7714111 L3.15575956,15.1470372 L4.77177356,17.8672028 L7.45796958,16.8173463 L7.9022513,17.1464361 C8.38973906,17.5075297 8.88055607,17.7847693 9.41162582,17.9955063 L9.94907464,18.2087747 L10.0323599,18.7809619 L10.3538822,21 L13.6317884,21 L14.0380679,18.2087747 L14.5755167,17.9955063 C15.0951693,17.7892998 15.5991572,17.5034801 16.0878326,17.1442657 L16.5313934,16.8182141 L17.0441291,17.0186086 L19.215234,17.8672066 L20.8327747,15.1449128 L18.587701,13.419697 L18.6577112,12.8524982 C18.6951976,12.5487954 18.7144667,12.2704715 18.7144667,12 C18.7144667,11.7160607 18.6930456,11.4453278 18.6505955,11.1873908 L18.5527618,10.592929 L19.0325664,10.2285889 L20.8442404,8.85296277 Z M4.98662467,18.2288523 C4.98355162,18.2234746 4.98040734,18.2181827 4.97719345,18.2129771 L4.98662467,18.2288523 Z M13.5690593,21.4309619 L13.5745624,21.3931548 C13.5721675,21.405606 13.5703232,21.4182151 13.5690593,21.4309619 Z M19.0090465,18.2142168 L19.0168153,18.2011419 C19.0141551,18.2054448 19.0115648,18.2098032 19.0090465,18.2142168 Z M21.1880534,15.417925 L21.1710104,15.4048284 C21.1765698,15.4093384 21.1822513,15.4137063 21.1880534,15.417925 Z M19.6501795,12.975 L21.7973727,14.625 C22.0030918,14.775 22.0545216,15.0375 21.9259471,15.2625 L19.868756,18.725 C19.7401816,18.95 19.4701752,19.0375 19.2387412,18.95 L16.6801098,17.95 C16.1529546,18.3375 15.5743696,18.675 14.9443548,18.925 L14.5586314,21.575 C14.5329166,21.825 14.31434,22 14.0571911,22 L9.94280888,22 C9.68566,22 9.47994088,21.825 9.42851111,21.575 L9.04278777,18.925 C8.41277299,18.675 7.84704544,18.35 7.30703277,17.95 L4.74840132,18.95 C4.51696732,19.025 4.24696098,18.95 4.11838654,18.725 L2.06119542,15.2625 C1.94547842,15.05 1.9969082,14.775 2.18976987,14.625 L4.36267798,12.975 C4.31124821,12.6625 4.28553332,12.325 4.28553332,12 C4.28553332,11.675 4.32410565,11.3375 4.37553543,11.025 L2.20262731,9.375 C1.9969082,9.225 1.94547842,8.9625 2.07405287,8.7375 L4.13124398,5.275 C4.25981843,5.05 4.52982476,4.9625 4.76125876,5.05 L7.31989021,6.05 C7.84704544,5.6625 8.42563044,5.325 9.05564522,5.075 L9.44136855,2.425 C9.47994088,2.175 9.68566,2 9.94280888,2 L14.0571911,2 C14.31434,2 14.5329166,2.175 14.5714889,2.425 L14.9572122,5.075 C15.587227,5.325 16.1529546,5.65 16.6929672,6.05 L19.2515987,5.05 C19.4830327,4.975 19.753039,5.05 19.8816135,5.275 L21.9388046,8.7375 C22.0545216,8.95 22.0030918,9.225 21.8102301,9.375 L19.637322,11.025 C19.6887518,11.3375 19.7144667,11.6625 19.7144667,12 C19.7144667,12.3375 19.6887518,12.6625 19.6501795,12.975 Z"/>
  </defs>
  <g fill="none" fill-rule="evenodd">
    <rect width="48" height="48" fill="#5599F6" rx="24"/>
    <g transform="translate(12 12)">
      <mask id="cog-b" fill="#fff">
        <use xlink:href="#cog-a"/>
      </mask>
      <use fill="#000" fill-rule="nonzero" xlink:href="#cog-a"/>
      <g fill="#FFF" mask="url(#cog-b)">
        <rect width="24" height="24"/>
      </g>
    </g>
  </g>
</svg>
