<svg xmlns="http://www.w3.org/2000/svg" width="48" height="48" viewBox="0 0 48 48">
  <g fill="none" fill-rule="evenodd">
    <rect width="48" height="48" fill="#5599F6" rx="24"/>
    <path fill="#FFF" fill-rule="nonzero" d="M24,13 C25.2096818,13 26.2186941,13.8591679 26.4501074,15.000574 L31,15 C32.1045695,15 33,15.8954305 33,17 L33,33 C33,34.1045695 32.1045695,35 31,35 L17,35 C15.8954305,35 15,34.1045695 15,33 L15,17 C15,15.8954305 15.8954305,15 17,15 L21.5498926,15.000574 C21.7813059,13.8591679 22.7903182,13 24,13 Z M19,16 L17,16 C16.4477153,16 16,16.4477153 16,17 L16,33 C16,33.5522847 16.4477153,34 17,34 L31,34 C31.5522847,34 32,33.5522847 32,33 L32,17 C32,16.4477153 31.5522847,16 31,16 L29,16 L29,18 C29,18.5522847 28.5522847,19 28,19 L20,19 C19.4477153,19 19,18.5522847 19,18 L19,16 Z M21.594777,27.66074 L22.3293581,28.3392609 L19.7220817,31.1619533 L18.1392738,29.5128853 L18.8607262,28.8204212 L19.7081133,29.703282 L21.594777,27.66074 Z M29,29 L29,30 L24,30 L24,29 L29,29 Z M21.594777,22.66074 L22.3293581,23.3392609 L19.7220817,26.1619533 L18.1392738,24.5128853 L18.8607262,23.8204212 L19.7081133,24.703282 L21.594777,22.66074 Z M29,24 L29,25 L24,25 L24,24 L29,24 Z M24,14 C23.2834156,14 22.6703386,14.5068464 22.5299527,15.1992754 L22.3674568,16.0007581 L20,16.0002252 L20,18 L28,18 L28,16.0002252 L25.6325432,16.0007581 L25.4700473,15.1992754 C25.3296614,14.5068464 24.7165844,14 24,14 Z"/>
  </g>
</svg>
