<svg xmlns="http://www.w3.org/2000/svg" xmlns:xlink="http://www.w3.org/1999/xlink" width="48" height="48" viewBox="0 0 48 48">
  <defs>
    <path id="document-check-a" d="M12,1 C13.2096818,1 14.2186941,1.85916789 14.4501074,3.00057405 L19,3 C20.1045695,3 21,3.8954305 21,5 L21,21 C21,22.1045695 20.1045695,23 19,23 L5,23 C3.8954305,23 3,22.1045695 3,21 L3,5 C3,3.8954305 3.8954305,3 5,3 L9.5498926,3.00057405 C9.7813059,1.85916789 10.7903182,1 12,1 Z M7,4 L5,4 C4.44771525,4 4,4.44771525 4,5 L4,21 C4,21.5522847 4.44771525,22 5,22 L19,22 C19.5522847,22 20,21.5522847 20,21 L20,5 C20,4.44771525 19.5522847,4 19,4 L17,4 L17,6 C17,6.55228475 16.5522847,7 16,7 L8,7 C7.44771525,7 7,6.55228475 7,6 L7,4 Z M9.59477703,15.66074 L10.3293581,16.3392609 L7.72208169,19.1619533 L6.13927383,17.5128853 L6.86072617,16.8204212 L7.70811326,17.703282 L9.59477703,15.66074 Z M17,17 L17,18 L12,18 L12,17 L17,17 Z M9.59477703,10.66074 L10.3293581,11.3392609 L7.72208169,14.1619533 L6.13927383,12.5128853 L6.86072617,11.8204212 L7.70811326,12.703282 L9.59477703,10.66074 Z M17,12 L17,13 L12,13 L12,12 L17,12 Z M12,2 C11.2834156,2 10.6703386,2.50684635 10.5299527,3.19927539 L10.3674568,4.00075813 L8,4.00022515 L8,6 L16,6 L16,4.00022515 L13.6325432,4.00075813 L13.4700473,3.19927539 C13.3296614,2.50684635 12.7165844,2 12,2 Z"/>
  </defs>
  <g fill="none" fill-rule="evenodd">
    <rect width="48" height="48" fill="#5599F6" rx="24"/>
    <g transform="translate(12 12)">
      <mask id="document-check-b" fill="#fff">
        <use xlink:href="#document-check-a"/>
      </mask>
      <use fill="#000" fill-rule="nonzero" xlink:href="#document-check-a"/>
      <g fill="#FFF" mask="url(#document-check-b)">
        <rect width="24" height="24"/>
      </g>
    </g>
  </g>
</svg>
