<svg xmlns="http://www.w3.org/2000/svg" xmlns:xlink="http://www.w3.org/1999/xlink" width="48" height="48" viewBox="0 0 48 48">
  <defs>
    <path id="folder-a" d="M22,19.1643606 C21.9912643,20.2186867 21.1683127,21.0757534 20.1328601,21.1435922 L19.9835577,21.1478507 L3.98355768,21.0163077 C2.93535543,21.00769 2.08093405,20.1938623 2.00542509,19.1647867 L2,19.0163753 L2,4 C2,2.9456382 2.81587779,2.08183488 3.85073766,2.00548574 L4,2 L9.46481624,2 C9.75737528,2 10.0329973,2.12793681 10.2215791,2.34629238 L10.2968665,2.4452998 L12,5 L20,5 C21.0543618,5 21.9181651,5.81587779 21.9945143,6.85073766 L22,7 L22,19.1643606 Z M3,9 L3,19.0163753 C3,19.5262324 3.38173351,19.9475356 3.8758737,20.0087346 L3.99177884,20.0163415 L19.9917788,20.147919 C20.5045974,20.1521006 20.9304281,19.7695483 20.9922799,19.2727013 L21,19.1479182 L21,9 L3,9 Z M3,8 L21,8 L21,7 C21,6.48716416 20.6139598,6.06449284 20.1166211,6.00672773 L20,6 L11.4648162,6 L9.46481624,3 L4,3 C3.48716416,3 3.06449284,3.38604019 3.00672773,3.88337887 L3,4 L3,8 Z"/>
  </defs>
  <g fill="none" fill-rule="evenodd">
    <rect width="48" height="48" fill="#F65563" rx="24"/>
    <g transform="translate(12 12)">
      <mask id="folder-b" fill="#fff">
        <use xlink:href="#folder-a"/>
      </mask>
      <use fill="#979797" xlink:href="#folder-a"/>
      <g fill="#FFF" mask="url(#folder-b)">
        <rect width="24" height="24"/>
      </g>
    </g>
  </g>
</svg>
