<svg xmlns="http://www.w3.org/2000/svg" width="48" height="48" viewBox="0 0 48 48">
  <g fill="none" fill-rule="evenodd">
    <rect width="48" height="48" fill="#F65563" rx="24"/>
    <path fill="#FFF" d="M34,31.1643606 C33.9912643,32.2186867 33.1683127,33.0757534 32.1328601,33.1435922 L31.9835577,33.1478507 L15.9835577,33.0163077 C14.9353554,33.00769 14.0809341,32.1938623 14.0054251,31.1647867 L14,31.0163753 L14,16 C14,14.9456382 14.8158778,14.0818349 15.8507377,14.0054857 L16,14 L21.4648162,14 C21.7573753,14 22.0329973,14.1279368 22.2215791,14.3462924 L22.2968665,14.4452998 L24,17 L32,17 C33.0543618,17 33.9181651,17.8158778 33.9945143,18.8507377 L34,19 L34,31.1643606 Z M15,21 L15,31.0163753 C15,31.5262324 15.3817335,31.9475356 15.8758737,32.0087346 L15.9917788,32.0163415 L31.9917788,32.147919 C32.5045974,32.1521006 32.9304281,31.7695483 32.9922799,31.2727013 L33,31.1479182 L33,21 L15,21 Z M15,20 L33,20 L33,19 C33,18.4871642 32.6139598,18.0644928 32.1166211,18.0067277 L32,18 L23.4648162,18 L21.4648162,15 L16,15 C15.4871642,15 15.0644928,15.3860402 15.0067277,15.8833789 L15,16 L15,20 Z"/>
  </g>
</svg>
