<svg xmlns="http://www.w3.org/2000/svg" xmlns:xlink="http://www.w3.org/1999/xlink" width="48" height="48" viewBox="0 0 48 48">
  <defs>
    <path id="institutional-building-a" d="M22,21 L22,22 L2,22 L2,21 L22,21 Z M3,20 L3,19 L6,19 L6,9 L7,9 L7,19 L11.5,19 L11.5,9 L12.5,9 L12.5,19 L17,19 L17,9 L18,9 L18,19 L21,19 L21,20 L3,20 Z M12,2 L22,6 L22,8 L2,8 L2,6 L12,2 Z M12,3.077 L3,6.676 L3,7 L21,7 L21,6.677 L12,3.077 Z"/>
  </defs>
  <g fill="none" fill-rule="evenodd">
    <rect width="48" height="48" fill="#0B5DD0" rx="24"/>
    <g transform="translate(12 12)">
      <mask id="institutional-building-b" fill="#fff">
        <use xlink:href="#institutional-building-a"/>
      </mask>
      <use fill="#979797" xlink:href="#institutional-building-a"/>
      <g fill="#FFF" mask="url(#institutional-building-b)">
        <rect width="24" height="24"/>
      </g>
    </g>
  </g>
</svg>
