<svg xmlns="http://www.w3.org/2000/svg" width="172" height="30" viewBox="0 0 172 30">
  <path fill="#FFF" d="M15.0117188,15 L15.0117188,22.5 L7.50585938,30 L7.50585938,22.5 L0,22.5 L7.50585938,15 L15.0117188,15 Z M30.0234375,15 L30.0234375,22.5 L22.5175781,30 L22.5175781,22.5 L15.0117188,22.5 L22.5175781,15 L30.0234375,15 Z M137.7532,9.32324218 C141.016193,9.32324218 142.647689,10.924235 142.647689,14.1262207 L142.647689,14.1262207 L142.647689,22.5 L139.80939,22.5 L139.80939,20.4882813 L139.758931,20.4882813 L139.6684,20.6399425 C138.779851,22.0811527 137.502308,22.8017578 135.835771,22.8017578 C134.565895,22.8017578 133.571439,22.4580892 132.852403,21.770752 C132.133368,21.0834147 131.773849,20.1739502 131.773849,19.0423584 C131.773849,16.6115316 133.178282,15.1949463 135.987147,14.7926026 L135.987147,14.7926026 L139.822004,14.2519531 L139.820187,14.1089368 C139.775366,12.3685877 138.901356,11.4984131 137.198154,11.4984131 C135.659166,11.4984131 134.271553,12.0264893 133.035316,13.0826416 L133.035316,13.0826416 L133.035316,10.5302734 L133.24125,10.4125879 C134.555488,9.68635741 136.059471,9.32324218 137.7532,9.32324218 Z M103.658853,9.32324218 C105.677199,9.32324218 107.249827,9.91418459 108.376737,11.0960694 C109.503647,12.2779541 110.067102,13.9166667 110.067102,16.012207 C110.067102,18.0658366 109.459496,19.7108358 108.244283,20.9472046 C107.02907,22.1835734 105.395472,22.8017578 103.343487,22.8017578 C101.35037,22.8017578 99.75882,22.2003377 98.5688368,20.9974976 C97.3788536,19.7946574 96.7838619,18.1999512 96.7838619,16.2133789 C96.7838619,14.0507812 97.4040829,12.3617757 98.6445248,11.1463623 C99.8849667,9.93094891 101.55641,9.32324218 103.658853,9.32324218 Z M67.8438218,9.32324218 C69.6098744,9.32324218 70.976463,9.88903811 71.9435871,11.0206299 C72.9107111,12.1522217 73.3942734,13.7238769 73.3942734,15.7355957 L73.3942734,15.7355957 L73.3942734,16.8546142 L64.5892388,16.8546142 L64.597328,17.0402872 C64.662533,18.140742 65.0277644,18.9966977 65.6930215,19.6081543 C66.3952381,20.2535807 67.3602595,20.5762939 68.5880867,20.5762939 C69.96729,20.5762939 71.2329612,20.1655681 72.3851005,19.3441162 L72.3851005,19.3441162 L72.3851005,21.6953125 L72.2293844,21.7894336 C71.0717284,22.4643164 69.5678255,22.8017578 67.7176751,22.8017578 C65.817066,22.8017578 64.3264329,22.217102 63.2457768,21.0477905 C62.1651207,19.878479 61.6247927,18.2334798 61.6247927,16.1127929 C61.6247927,14.1094564 62.2197843,12.4770304 63.4097675,11.2155152 C64.5997508,9.95399984 66.0777687,9.32324218 67.8438218,9.32324218 Z M44.3576856,4.4699707 L49.1134134,16.477417 L49.1840555,16.6586952 C49.5058696,17.4900566 49.7177959,18.1169678 49.8198345,18.5394287 L49.8198345,18.5394287 L49.8829078,18.5394287 L49.9486843,18.3401813 C50.2298111,17.4928988 50.4601788,16.855213 50.6397876,16.427124 L50.6397876,16.427124 L55.4838181,4.4699707 L59.558354,4.4699707 L59.558354,22.5 L56.5812937,22.5 L56.5812937,10.8320313 L56.5823387,10.6077216 C56.5906986,9.69530598 56.6492191,8.60076434 56.7578991,7.32409666 L56.7578991,7.32409666 L56.7074404,7.32409666 L56.6651176,7.50198204 C56.4973203,8.19775104 56.3474374,8.7042518 56.2154683,9.02148439 L56.2154683,9.02148439 L50.8163929,22.5 L48.7475882,22.5 L43.3358979,9.12207032 L43.3008157,9.02751059 C43.1598898,8.63468979 43.0117981,8.06688514 42.8565407,7.32409666 L42.8565407,7.32409666 L42.8060821,7.32409666 L42.8159215,7.43565279 C42.8766401,8.16387402 42.9069994,9.3043823 42.9069994,10.8571778 L42.9069994,22.5 L40.1317736,22.5 L40.1317736,4.4699707 L44.3576856,4.4699707 Z M123.418573,4.4699707 L123.644671,4.47213358 C125.287598,4.50385587 126.597742,4.88452325 127.575104,5.61413577 C128.596892,6.37691245 129.107786,7.37019857 129.107786,8.59399414 C129.107786,9.61661786 128.817648,10.5051269 128.237374,11.2595215 C127.657099,12.013916 126.853966,12.5503744 125.827974,12.8688965 L125.827974,12.8688965 L125.827974,12.9191894 L126.033098,12.9458688 C127.182343,13.1136543 128.108424,13.5636845 128.811341,14.2959595 C129.555606,15.0713094 129.927739,16.0792643 129.927739,17.3198242 C129.927739,18.8621419 129.31803,20.111084 128.098613,21.0666504 C126.879195,22.0222168 125.340206,22.5 123.481646,22.5 L123.481646,22.5 L117.678901,22.5 L117.678901,4.4699707 L123.418573,4.4699707 Z M152.671041,9.32324218 C154.075473,9.32324218 155.14772,9.77797446 155.88778,10.687439 C156.62784,11.5969035 156.99787,12.9108073 156.99787,14.6291504 L156.99787,14.6291504 L156.99787,22.5 L154.071268,22.5 L154.071268,15.2452392 L154.069945,15.0830795 C154.032028,12.7855056 153.178876,11.6367188 151.510492,11.6367188 C150.619056,11.6367188 149.8832,11.9699097 149.302926,12.6362915 C148.722651,13.3026733 148.432514,14.142985 148.432514,15.1572266 L148.432514,15.1572266 L148.432514,22.5 L145.493297,22.5 L145.493297,9.62500002 L148.432514,9.62500002 L148.432514,11.7624512 L148.482973,11.7624512 L148.577904,11.6076211 C149.540609,10.0847018 150.904987,9.32324218 152.671041,9.32324218 Z M162.782695,3.43896484 L162.782695,15.5218506 L162.833153,15.5218506 L167.576267,9.62500002 L171.095757,9.62500002 L165.759755,15.8361816 L171.5625,22.5 L167.853789,22.5 L162.833153,16.3139649 L162.782695,16.3139649 L162.782695,22.5 L159.843478,22.5 L159.843478,3.43896484 L162.782695,3.43896484 Z M90.5070651,9.32324218 C93.3495694,9.32324218 94.7708215,11.0709229 94.7708215,14.5662842 L94.7708215,14.5662842 L94.7708215,22.5 L91.8442194,22.5 L91.8442194,15.4841308 L91.8426298,15.2741473 C91.8235504,14.0328444 91.6327579,13.1263171 91.2702523,12.5545654 C90.8876078,11.9510498 90.2421575,11.649292 89.3339019,11.649292 C88.568612,11.649292 87.9189568,12.0306804 87.3849364,12.793457 C86.8509154,13.5562337 86.5839052,14.4698893 86.5839052,15.5344238 L86.5839052,15.5344238 L86.5839052,22.5 L83.6446889,22.5 L83.6446889,15.2452392 L83.6433105,15.0799307 C83.6047229,12.7928382 82.7557952,11.649292 81.0965268,11.649292 C80.3060081,11.649292 79.6563529,12.0097249 79.1475613,12.7305908 C78.6387702,13.4514567 78.3843746,14.3860677 78.3843746,15.5344238 L78.3843746,15.5344238 L78.3843746,22.5 L75.4577725,22.5 L75.4577725,9.62500002 L78.3843746,9.62500002 L78.3843746,11.6618652 L78.4348333,11.6618652 L78.5295975,11.5085555 C79.4593354,10.0516799 80.7859258,9.32324218 82.5093692,9.32324218 C83.4008053,9.32324218 84.1808121,9.56842039 84.849389,10.0587769 C85.5179664,10.5491333 85.9741967,11.1924642 86.2180798,11.9887696 C87.1767946,10.2117513 88.606456,9.32324218 90.5070651,9.32324218 Z M139.822004,16.1756592 L137.109852,16.5528565 L136.919475,16.5796769 C136.172747,16.6936544 135.60337,16.8879817 135.211345,17.1626587 C134.786651,17.4602254 134.574305,17.982015 134.574305,18.7280274 C134.574305,19.2728679 134.769832,19.7192179 135.160887,20.0670776 C135.551941,20.4149373 136.075449,20.5888672 136.731412,20.5888672 C137.622848,20.5888672 138.360806,20.2766317 138.945285,19.6521606 C139.529765,19.0276896 139.822004,18.241862 139.822004,17.2946777 L139.822004,17.2946777 L139.822004,16.1756592 Z M103.482248,11.649292 C102.338518,11.649292 101.434468,12.0474447 100.770096,12.84375 C100.105723,13.6400553 99.7735374,14.7381185 99.7735374,16.1379394 C99.7735374,17.4874675 100.109928,18.5499064 100.78271,19.3252563 C101.455492,20.1006063 102.355338,20.4882813 103.482248,20.4882813 C104.634387,20.4882813 105.519516,20.1068929 106.137634,19.3441162 C106.755753,18.5813395 107.064812,17.4958496 107.064812,16.0876465 C107.064812,14.6710612 106.755753,13.5771891 106.137634,12.8060302 C105.519516,12.0348714 104.634387,11.649292 103.482248,11.649292 Z M122.838299,14.4028321 L120.668577,14.4028321 L120.668577,20.111084 L123.229353,20.111084 C124.347853,20.111084 125.211957,19.8533325 125.821666,19.3378296 C126.431375,18.8223267 126.736229,18.1119385 126.736229,17.2066651 C126.736229,15.3374431 125.436919,14.4028321 122.838299,14.4028321 L122.838299,14.4028321 Z M30.0234375,0 L30.0234375,7.5 L22.5175781,15 L22.5175781,7.5 L15.0117188,7.5 L22.5175781,0 L30.0234375,0 Z M15.0117188,0 L15.0117188,7.5 L7.50585938,15 L7.50585938,7.5 L0,7.5 L7.50585938,0 L15.0117188,0 Z M67.8059778,11.4732666 C66.9650004,11.4732666 66.2522719,11.7792155 65.6677922,12.3911133 C65.0833131,13.0030111 64.7237953,13.8035075 64.5892388,14.7926026 L64.5892388,14.7926026 L70.5685887,14.7926026 C70.5601789,13.7448324 70.3120904,12.9296672 69.8243237,12.3471069 C69.3365565,11.7645467 68.6637747,11.4732666 67.8059778,11.4732666 Z M122.850913,6.87145998 L120.668577,6.87145998 L120.668577,12.0013428 L122.611235,12.0013428 C123.654047,12.0013428 124.471897,11.7561646 125.064786,11.2658081 C125.657675,10.7754516 125.95412,10.0818278 125.95412,9.1849365 C125.95412,7.64261882 124.919718,6.87145998 122.850913,6.87145998 L122.850913,6.87145998 Z" />
</svg>
