<svg xmlns="http://www.w3.org/2000/svg" width="48" height="48" viewBox="0 0 48 48">
  <g fill="none" fill-rule="evenodd">
    <rect width="48" height="48" fill="#F65563" rx="24"/>
    <path fill="#FFF" fill-rule="nonzero" d="M24,14 C26.7614237,14 29,16.2385763 29,19 L29,21 C30.6568542,21 32,22.3431458 32,24 L32,31 C32,32.6568542 30.6568542,34 29,34 L19,34 C17.3431458,34 16,32.6568542 16,31 L16,24 C16,22.3431458 17.3431458,21 19,21 L19,19 C19,16.2385763 21.2385763,14 24,14 Z M29,22 L19,22 C17.9456382,22 17.0818349,22.8158778 17.0054857,23.8507377 L17,24 L17,31 C17,32.0543618 17.8158778,32.9181651 18.8507377,32.9945143 L19,33 L29,33 C30.0543618,33 30.9181651,32.1841222 30.9945143,31.1492623 L31,31 L31,24 C31,22.9456382 30.1841222,22.0818349 29.1492623,22.0054857 L29,22 Z M24,26 C24.8284271,26 25.5,26.6715729 25.5,27.5 C25.5,28.3284271 24.8284271,29 24,29 C23.1715729,29 22.5,28.3284271 22.5,27.5 C22.5,26.6715729 23.1715729,26 24,26 Z M24,27 C23.7238576,27 23.5,27.2238576 23.5,27.5 C23.5,27.7761424 23.7238576,28 24,28 C24.2761424,28 24.5,27.7761424 24.5,27.5 C24.5,27.2238576 24.2761424,27 24,27 Z M24,15 C21.8578046,15 20.1089211,16.6839685 20.0048953,18.8003597 L20,19 L20,21 L28,21 L28,19 C28,16.8578046 26.3160315,15.1089211 24.1996403,15.0048953 L24,15 Z"/>
  </g>
</svg>
