<svg xmlns="http://www.w3.org/2000/svg" xmlns:xlink="http://www.w3.org/1999/xlink" width="48" height="48" viewBox="0 0 48 48">
  <defs>
    <path id="padlock-a" d="M12,2 C14.7614237,2 17,4.23857625 17,7 L17,9 C18.6568542,9 20,10.3431458 20,12 L20,19 C20,20.6568542 18.6568542,22 17,22 L7,22 C5.34314575,22 4,20.6568542 4,19 L4,12 C4,10.3431458 5.34314575,9 7,9 L7,7 C7,4.23857625 9.23857625,2 12,2 Z M17,10 L7,10 C5.9456382,10 5.08183488,10.8158778 5.00548574,11.8507377 L5,12 L5,19 C5,20.0543618 5.81587779,20.9181651 6.85073766,20.9945143 L7,21 L17,21 C18.0543618,21 18.9181651,20.1841222 18.9945143,19.1492623 L19,19 L19,12 C19,10.9456382 18.1841222,10.0818349 17.1492623,10.0054857 L17,10 Z M12,14 C12.8284271,14 13.5,14.6715729 13.5,15.5 C13.5,16.3284271 12.8284271,17 12,17 C11.1715729,17 10.5,16.3284271 10.5,15.5 C10.5,14.6715729 11.1715729,14 12,14 Z M12,15 C11.7238576,15 11.5,15.2238576 11.5,15.5 C11.5,15.7761424 11.7238576,16 12,16 C12.2761424,16 12.5,15.7761424 12.5,15.5 C12.5,15.2238576 12.2761424,15 12,15 Z M12,3 C9.85780461,3 8.10892112,4.68396847 8.00489531,6.80035966 L8,7 L8,9 L16,9 L16,7 C16,4.85780461 14.3160315,3.10892112 12.1996403,3.00489531 L12,3 Z"/>
  </defs>
  <g fill="none" fill-rule="evenodd">
    <rect width="48" height="48" fill="#F65563" rx="24"/>
    <g transform="translate(12 12)">
      <mask id="padlock-b" fill="#fff">
        <use xlink:href="#padlock-a"/>
      </mask>
      <use fill="#000" fill-rule="nonzero" xlink:href="#padlock-a"/>
      <g fill="#FFF" mask="url(#padlock-b)">
        <rect width="24" height="24"/>
      </g>
    </g>
  </g>
</svg>
