<svg xmlns="http://www.w3.org/2000/svg" xmlns:xlink="http://www.w3.org/1999/xlink" width="48" height="48" viewBox="0 0 48 48">
  <defs>
    <path id="returning-arrows-a" d="M18.5,7.79289322 L22.3535534,11.6464466 L21.6464466,12.3535534 L18.9994466,9.707 L19,17 C19,18.6568542 17.6568542,20 16,20 L6,20 L6,19 L16,19 C17.1045695,19 18,18.1045695 18,17 L17.9994466,9.707 L15.3535534,12.3535534 L14.6464466,11.6464466 L18.5,7.79289322 Z M18,4 L18,5 L8,5 C6.8954305,5 6,5.8954305 6,7 L5.99944661,14.292 L8.64644661,11.6464466 L9.35355339,12.3535534 L5.5,16.2071068 L1.64644661,12.3535534 L2.35355339,11.6464466 L4.99944661,14.292 L5,7 C5,5.34314575 6.34314575,4 8,4 L18,4 Z"/>
  </defs>
  <g fill="none" fill-rule="evenodd">
    <rect width="48" height="48" fill="#5599F6" rx="24"/>
    <g transform="translate(12 12)">
      <mask id="returning-arrows-b" fill="#fff">
        <use xlink:href="#returning-arrows-a"/>
      </mask>
      <use fill="#000" fill-rule="nonzero" xlink:href="#returning-arrows-a"/>
      <g fill="#FFF" mask="url(#returning-arrows-b)">
        <rect width="24" height="24"/>
      </g>
    </g>
  </g>
</svg>
