<svg xmlns="http://www.w3.org/2000/svg" xmlns:xlink="http://www.w3.org/1999/xlink" width="48" height="48" viewBox="0 0 48 48">
  <defs>
    <path id="vault-a" d="M5,3 C3.8954305,3 3,3.8954305 3,5 L3,19 C3,20.1045695 3.8954305,21 5,21 L19,21 C20.1045695,21 21,20.1045695 21,19 L21,5 C21,3.8954305 20.1045695,3 19,3 L5,3 Z M5,2 L19,2 C20.6568542,2 22,3.34314575 22,5 L22,19 C22,20.6568542 20.6568542,22 19,22 L5,22 C3.34314575,22 2,20.6568542 2,19 L2,5 C2,3.34314575 3.34314575,2 5,2 Z M12,15 C13.6568542,15 15,13.6568542 15,12 C15,10.3431458 13.6568542,9 12,9 C10.3431458,9 9,10.3431458 9,12 C9,13.6568542 10.3431458,15 12,15 Z M12,16 C9.790861,16 8,14.209139 8,12 C8,9.790861 9.790861,8 12,8 C14.209139,8 16,9.790861 16,12 C16,14.209139 14.209139,16 12,16 Z M3,14 L5,14 L5,15 L3,15 L3,14 Z M3,9 L5,9 L5,10 L3,10 L3,9 Z M9.88379323,9.19463764 L9.17357982,9.89862408 L7.14489329,7.85199322 L7.85510671,7.14800678 L9.88379323,9.19463764 Z M14.8535534,9.85355339 L14.1464466,9.14644661 L16.1464466,7.14644661 L16.8535534,7.85355339 L14.8535534,9.85355339 Z M14.1010316,14.7881716 L14.811566,14.0845091 L16.8552672,16.1481688 L16.1447328,16.8518312 L14.1010316,14.7881716 Z M9.14644661,14.1464466 L9.85355339,14.8535534 L7.85355339,16.8535534 L7.14644661,16.1464466 L9.14644661,14.1464466 Z"/>
  </defs>
  <g fill="none" fill-rule="evenodd">
    <rect width="48" height="48" fill="#5599F6" rx="24"/>
    <g transform="translate(12 12)">
      <mask id="vault-b" fill="#fff">
        <use xlink:href="#vault-a"/>
      </mask>
      <use fill="#000" fill-rule="nonzero" xlink:href="#vault-a"/>
      <g fill="#FFF" mask="url(#vault-b)">
        <rect width="24" height="24"/>
      </g>
    </g>
  </g>
</svg>
