<svg xmlns="http://www.w3.org/2000/svg" width="48" height="48" viewBox="0 0 48 48">
  <g fill="none" fill-rule="evenodd">
    <rect width="48" height="48" fill="#5599F6" rx="24"/>
    <path fill="#FFF" fill-rule="nonzero" d="M34,29 C34,30.6568542 32.6568542,32 31,32 L17,32 C15.3431458,32 14,30.6568542 14,29 L14,19 C14,17.3431458 15.3431458,16 17,16 L31,16 C32.6568542,16 34,17.3431458 34,19 L34,29 Z M31,17 L17,17 C15.8954305,17 15,17.8954305 15,19 L15,29 C15,30.1045695 15.8954305,31 17,31 L31,31 C32.1045695,31 33,30.1045695 33,29 L33,26 L28,26 C26.8954305,26 26,25.1045695 26,24 C26,22.8954305 26.8954305,22 28,22 L33,22 L33,19 C33,17.8954305 32.1045695,17 31,17 Z M33,23 L28,23 C27.4477153,23 27,23.4477153 27,24 C27,24.5522847 27.4477153,25 28,25 L33,25 L33,23 Z"/>
  </g>
</svg>
