<svg xmlns="http://www.w3.org/2000/svg" xmlns:xlink="http://www.w3.org/1999/xlink" width="48" height="48" viewBox="0 0 48 48">
  <defs>
    <path id="wallet-a" d="M22,17 C22,18.6568542 20.6568542,20 19,20 L5,20 C3.34314575,20 2,18.6568542 2,17 L2,7 C2,5.34314575 3.34314575,4 5,4 L19,4 C20.6568542,4 22,5.34314575 22,7 L22,17 Z M19,5 L5,5 C3.8954305,5 3,5.8954305 3,7 L3,17 C3,18.1045695 3.8954305,19 5,19 L19,19 C20.1045695,19 21,18.1045695 21,17 L21,14 L16,14 C14.8954305,14 14,13.1045695 14,12 C14,10.8954305 14.8954305,10 16,10 L21,10 L21,7 C21,5.8954305 20.1045695,5 19,5 Z M21,11 L16,11 C15.4477153,11 15,11.4477153 15,12 C15,12.5522847 15.4477153,13 16,13 L21,13 L21,11 Z"/>
  </defs>
  <g fill="none" fill-rule="evenodd">
    <rect width="48" height="48" fill="#5599F6" rx="24"/>
    <g transform="translate(12 12)">
      <mask id="wallet-b" fill="#fff">
        <use xlink:href="#wallet-a"/>
      </mask>
      <use fill="#000" fill-rule="nonzero" xlink:href="#wallet-a"/>
      <g fill="#FFF" mask="url(#wallet-b)">
        <rect width="24" height="24"/>
      </g>
    </g>
  </g>
</svg>
