<svg xmlns="http://www.w3.org/2000/svg" width="24" height="24" viewBox="0 0 24 24">
  <path fill="#80858C" d="M14.1464466,14.8535534 L14.8535534,14.1464466 L19.8535534,19.1464466 L19.1464466,19.8535534 L14.1464466,14.8535534 Z M10.5,16 C13.5375661,16 16,13.5375661 16,10.5 C16,7.46243388 13.5375661,5 10.5,5 C7.46243388,5 5,7.46243388 5,10.5 C5,13.5375661 7.46243388,16 10.5,16 Z M10.5,17 C6.91014913,17 4,14.0898509 4,10.5 C4,6.91014913 6.91014913,4 10.5,4 C14.0898509,4 17,6.91014913 17,10.5 C17,14.0898509 14.0898509,17 10.5,17 Z" />
</svg>
