<svg xmlns="http://www.w3.org/2000/svg" width="24" height="24" viewBox="0 0 24 24">
  <path fill="#797e86" d="M18,4 C19.1045695,4 20,4.8954305 20,6 L20,17 C20,18.1045695 19.1045695,19 18,19 L6,19 C4.8954305,19 4,18.1045695 4,17 L4,6 C4,4.8954305 4.8954305,4 6,4 L18,4 Z M18,5 L6,5 C5.48716416,5 5.06449284,5.38604019 5.00672773,5.88337887 L5,6 L5,17 C5,17.5128358 5.38604019,17.9355072 5.88337887,17.9932723 L6,18 L18,18 C18.5128358,18 18.9355072,17.6139598 18.9932723,17.1166211 L19,17 L19,6 C19,5.48716416 18.6139598,5.06449284 18.1166211,5.00672773 L18,5 Z M14,14 L14,15 L7,15 L7,14 L14,14 Z M17,11 L17,12 L7,12 L7,11 L17,11 Z M17,8 L17,9 L7,9 L7,8 L17,8 Z" />
</svg>
