<svg xmlns="http://www.w3.org/2000/svg" width="48" height="48" viewBox="0 0 48 48">
  <g fill="none" fill-rule="evenodd">
    <rect width="48" height="48" fill="#5599F6" rx="24"/>
    <path fill="#FFF" fill-rule="nonzero" d="M24,27 C25.6465729,27 27,25.6465729 27,24 C27,22.3534271 25.6465729,21 24,21 C22.3534271,21 21,22.3534271 21,24 C21,25.6465729 22.3534271,27 24,27 Z M24,28 C21.8,28 20,26.2 20,24 C20,21.8 21.8,20 24,20 C26.2,20 28,21.8 28,24 C28,26.2 26.2,28 24,28 Z M32.8442404,20.8529628 L31.2282264,18.1327972 L28.5420304,19.1826537 L28.0977487,18.8535639 C27.6102609,18.4924703 27.1194439,18.2152307 26.5883742,18.0044937 L26.0509254,17.7912253 L25.9676401,17.2190381 L25.6446768,15 L22.3682116,15 L21.9619321,17.7912253 L21.4244833,18.0044937 C20.9048307,18.2107002 20.4008428,18.4965199 19.9121674,18.8557343 L19.4686066,19.1817859 L18.9558709,18.9813914 L16.784766,18.1327934 L15.1685566,20.8528465 L17.4600957,22.592929 L17.3622619,23.1873908 C17.3121997,23.4915812 17.2855333,23.7637944 17.2855333,24 C17.2855333,24.276358 17.3076992,24.5591977 17.3494045,24.8126092 L17.4472382,25.407071 L16.9674336,25.7714111 L15.1557596,27.1470372 L16.7717736,29.8672028 L19.4579696,28.8173463 L19.9022513,29.1464361 C20.3897391,29.5075297 20.8805561,29.7847693 21.4116258,29.9955063 L21.9490746,30.2087747 L22.0323599,30.7809619 L22.3538822,33 L25.6317884,33 L26.0380679,30.2087747 L26.5755167,29.9955063 C27.0951693,29.7892998 27.5991572,29.5034801 28.0878326,29.1442657 L28.5313934,28.8182141 L29.0441291,29.0186086 L31.215234,29.8672066 L32.8327747,27.1449128 L30.587701,25.419697 L30.6577112,24.8524982 C30.6951976,24.5487954 30.7144667,24.2704715 30.7144667,24 C30.7144667,23.7160607 30.6930456,23.4453278 30.6505955,23.1873908 L30.5527618,22.592929 L31.0325664,22.2285889 L32.8442404,20.8529628 Z M16.9866247,30.2288523 C16.9835516,30.2234746 16.9804073,30.2181827 16.9771935,30.2129771 L16.9866247,30.2288523 Z M25.5690593,33.4309619 L25.5745624,33.3931548 C25.5721675,33.405606 25.5703232,33.4182151 25.5690593,33.4309619 Z M31.0090465,30.2142168 L31.0168153,30.2011419 C31.0141551,30.2054448 31.0115648,30.2098032 31.0090465,30.2142168 Z M33.1880534,27.417925 L33.1710104,27.4048284 C33.1765698,27.4093384 33.1822513,27.4137063 33.1880534,27.417925 Z M31.6501795,24.975 L33.7973727,26.625 C34.0030918,26.775 34.0545216,27.0375 33.9259471,27.2625 L31.868756,30.725 C31.7401816,30.95 31.4701752,31.0375 31.2387412,30.95 L28.6801098,29.95 C28.1529546,30.3375 27.5743696,30.675 26.9443548,30.925 L26.5586314,33.575 C26.5329166,33.825 26.31434,34 26.0571911,34 L21.9428089,34 C21.68566,34 21.4799409,33.825 21.4285111,33.575 L21.0427878,30.925 C20.412773,30.675 19.8470454,30.35 19.3070328,29.95 L16.7484013,30.95 C16.5169673,31.025 16.246961,30.95 16.1183865,30.725 L14.0611954,27.2625 C13.9454784,27.05 13.9969082,26.775 14.1897699,26.625 L16.362678,24.975 C16.3112482,24.6625 16.2855333,24.325 16.2855333,24 C16.2855333,23.675 16.3241057,23.3375 16.3755354,23.025 L14.2026273,21.375 C13.9969082,21.225 13.9454784,20.9625 14.0740529,20.7375 L16.131244,17.275 C16.2598184,17.05 16.5298248,16.9625 16.7612588,17.05 L19.3198902,18.05 C19.8470454,17.6625 20.4256304,17.325 21.0556452,17.075 L21.4413686,14.425 C21.4799409,14.175 21.68566,14 21.9428089,14 L26.0571911,14 C26.31434,14 26.5329166,14.175 26.5714889,14.425 L26.9572122,17.075 C27.587227,17.325 28.1529546,17.65 28.6929672,18.05 L31.2515987,17.05 C31.4830327,16.975 31.753039,17.05 31.8816135,17.275 L33.9388046,20.7375 C34.0545216,20.95 34.0030918,21.225 33.8102301,21.375 L31.637322,23.025 C31.6887518,23.3375 31.7144667,23.6625 31.7144667,24 C31.7144667,24.3375 31.6887518,24.6625 31.6501795,24.975 Z"/>
  </g>
</svg>
