<svg xmlns="http://www.w3.org/2000/svg" width="48" height="48" viewBox="0 0 48 48">
  <g fill="none" fill-rule="evenodd">
    <rect width="48" height="48" fill="#5599F6" rx="24"/>
    <path fill="#FFF" fill-rule="nonzero" d="M17,15 C15.8954305,15 15,15.8954305 15,17 L15,31 C15,32.1045695 15.8954305,33 17,33 L31,33 C32.1045695,33 33,32.1045695 33,31 L33,17 C33,15.8954305 32.1045695,15 31,15 L17,15 Z M17,14 L31,14 C32.6568542,14 34,15.3431458 34,17 L34,31 C34,32.6568542 32.6568542,34 31,34 L17,34 C15.3431458,34 14,32.6568542 14,31 L14,17 C14,15.3431458 15.3431458,14 17,14 Z M24,27 C25.6568542,27 27,25.6568542 27,24 C27,22.3431458 25.6568542,21 24,21 C22.3431458,21 21,22.3431458 21,24 C21,25.6568542 22.3431458,27 24,27 Z M24,28 C21.790861,28 20,26.209139 20,24 C20,21.790861 21.790861,20 24,20 C26.209139,20 28,21.790861 28,24 C28,26.209139 26.209139,28 24,28 Z M15,26 L17,26 L17,27 L15,27 L15,26 Z M15,21 L17,21 L17,22 L15,22 L15,21 Z M21.8837932,21.1946376 L21.1735798,21.8986241 L19.1448933,19.8519932 L19.8551067,19.1480068 L21.8837932,21.1946376 Z M26.8535534,21.8535534 L26.1464466,21.1464466 L28.1464466,19.1464466 L28.8535534,19.8535534 L26.8535534,21.8535534 Z M26.1010316,26.7881716 L26.811566,26.0845091 L28.8552672,28.1481688 L28.1447328,28.8518312 L26.1010316,26.7881716 Z M21.1464466,26.1464466 L21.8535534,26.8535534 L19.8535534,28.8535534 L19.1464466,28.1464466 L21.1464466,26.1464466 Z"/>
  </g>
</svg>
